# xmcd
#
# Track frame offsets: 
#        150
#        14327
#        35573
#        48812
#        61523
#        74842
#        86379
#        98603
#        113440
#        128063
#        142253
#        154042
#        166467
#        180917
#        194276
#        208356
#        219255
#        232446
#        245862
#        257371
#        271350
#        283412
#        297710
#        309723
#        324813
#
# Disc length: 4498 seconds
#
# Revision: 1
# Processed by: cddbd v1.5.2PL0 Copyright (c) Steve Scherf et al.
# Submitted via: ExactAudioCopy v0.99pb4
#
DISCID=79119019
DTITLE=George Shearing - from Battersea to Broadway - Conception
DYEAR=2002
DGENRE=Jazz
TTITLE0=East of the Sun
TTITLE1=In the Chinese Garden Pts 1 and 2
TTITLE2=Conception
TTITLE3=I'll remember April
TTITLE4=Little white lies
TTITLE5=Carnegie Horizons
TTITLE6=Jumpin' with Symphony Sid
TTITLE7=How's Trix?
TTITLE8=Changing with the times
TTITLE9=Strollin'
TTITLE10=When your lover has gone
TTITLE11=As long there's music
TTITLE12=Tenderly
TTITLE13=Roses of Picardy
TTITLE14=For you
TTITLE15=Geneva's move
TTITLE16=Pick yourself up
TTITLE17=I'll be around
TTITLE18=Loose leaf
TTITLE19=Easy living
TTITLE20=Takin' a chance on love
TTITLE21=You're driving me crazy
TTITLE22=Swedish pastry
TTITLE23=Lonely moments
TTITLE24=How high the Moon
EXTD=
EXTT0=
EXTT1=
EXTT2=
EXTT3=
EXTT4=
EXTT5=
EXTT6=
EXTT7=
EXTT8=
EXTT9=
EXTT10=
EXTT11=
EXTT12=
EXTT13=
EXTT14=
EXTT15=
EXTT16=
EXTT17=
EXTT18=
EXTT19=
EXTT20=
EXTT21=
EXTT22=
EXTT23=
EXTT24=
PLAYORDER=
